<?xml version="1.0" encoding="UTF-8"?>
<svg id="Layer_1" data-name="Layer 1" xmlns="http://www.w3.org/2000/svg" viewBox="0 0 1029.81 255.49">
  <defs>
    <style>
      .cls-1 {
        fill: #fff;
      }

      .cls-2 {
        fill: #21b4d6;
      }
    </style>
  </defs>
  <path d="M307.37,213.56l98.72-96.76v-33.34h-95.49c-6.54,11.4-13.03,22.88-20.31,33.34h66.44l-98.72,96.76v33.34h152.98v-33.34h-103.62Z"/>
  <path d="M518.86,78.23c-49.36,0-88.26,38.24-88.26,86.62s38.9,87.28,88.26,87.28,87.93-38.24,87.93-87.28-38.57-86.62-87.93-86.62ZM518.86,218.79c-30.07,0-50.99-21.9-50.99-53.93s20.92-53.28,50.99-53.28,50.67,21.57,50.67,53.28-20.92,53.93-50.67,53.93Z"/>
  <path d="M630.65,164.86c0-48.38,38.9-86.62,88.26-86.62s87.93,38.24,87.93,86.62-38.57,87.28-87.93,87.28-88.26-38.24-88.26-87.28ZM718.91,218.79c29.75,0,50.67-21.9,50.67-53.93s-20.92-53.28-50.67-53.28-50.99,21.57-50.99,53.28,20.92,53.93,50.99,53.93Z"/>
  <path class="cls-1" d="M293.68,51.47c-.2.53-.57.57-.86.61-7.31,2.37-13.32,6.82-18.84,11.93-.45.41-.94.82-1.35,1.27-7.48,7.15-13.73,15.24-19.86,23.49-9.4,12.75-18.26,25.9-28.32,38.12-8.5-2.45-17-6.25-25.58-11.32-.04,0-.04-.04-.12-.04,3.84-3.43,7.56-6.95,11.36-10.5.12-.12.12-.2.2-.33l1.18-1.02c.16-.57.12-1.06-.04-1.76-2-7.23-4.74-14.14-8.46-20.63-2.61-4.62-5.6-8.95-8.91-12.95,6.62,1.27,12.95,1.59,19.08,1.06,7.27-.61,14.02-2.37,20.43-5.03,2.17,3.8,4.09,7.72,5.84,11.81.33.74.57,1.18.86,1.35l.82-.74c.2-.16.41-.33.74-.53,9.36-8.05,19.65-14.22,30.77-18.67,6.05-2.45,12.34-4.41,18.88-5.88.37-.04.78-.16,1.14-.2.29-.04.61-.12,1.02-.16v.12Z"/>
  <path d="M875.81,83.46v18.63c12.09-15.36,28.44-23.86,44.45-23.86,17.98,0,32.69,10.13,38.9,17.32l-20.92,28.77c-4.9-5.56-13.07-12.75-26.15-12.75-18.63,0-36.28,16.02-36.28,47.72v87.6h-37.26V83.46h37.26Z"/>
  <path d="M1001.66,12.86c13.07,0,24.19,11.11,24.19,24.19s-11.11,24.52-24.19,24.52c-13.73,0-24.85-11.11-24.85-24.52s11.11-24.19,24.85-24.19ZM1019.96,83.46v163.44h-37.26V83.46h37.26Z"/>
  <path d="M315.99,55.76c-11.6,6.29-19.41,16.22-26.07,27.09-.2.33-.41.57-.57.86-6.29,10.3-11.52,21.21-16.55,32.16-1.35,2.98-2.7,6.01-4.09,8.95-3.84,8.5-7.76,17-11.77,25.41-6.33,13.36-13.32,26.4-22.31,38.16-8.46,10.99-18.02,20.92-28.77,29.75-11.2,9.11-23.45,16.38-37.02,21.33-17.57,6.42-35.63,8.66-54.26,6.82-17.28-1.76-33.5-6.95-48.58-15.57-13.03-7.44-24.35-17.04-33.83-28.72-10.58-13.12-18.43-27.62-23.04-43.84-4.62-16.43-5.76-33.1-3.51-50.05,2.7-20.02,9.93-38.24,21.61-54.71,7.23-10.13,15.85-19,25.86-26.52,14.46-10.91,30.44-18.31,48.17-22.15,17.04-3.64,34.12-3.68,51.16,0,25.01,5.39,46.38,17.41,63.9,36.04,6.82,7.23,12.58,15.16,17.37,23.7,2.17,3.8,4.09,7.72,5.84,11.81.33.74.57,1.18.86,1.35.41.25.86,0,1.8-.78l-31.34,28.23c.37-.45.61-.86.74-1.39.16-.57.12-1.06-.04-1.76-2-7.23-4.74-14.14-8.46-20.63-2.61-4.62-5.6-8.95-8.91-12.95-4.9-6.05-10.7-11.4-17.24-16.06-8.87-6.21-18.51-10.71-29.01-13.36-4.82-1.23-9.6-2.08-14.42-2.45-3.23-.37-6.46-.45-9.68-.37-8.05.12-16.14,1.39-24.15,3.8-7.07,2.17-13.77,5.23-20.1,9.11-10.17,6.13-18.71,14.01-25.7,23.58-7.35,10.13-12.38,21.33-14.95,33.63-4.25,20.06-1.96,39.35,7.07,57.78,7.52,15.36,18.67,27.62,33.38,36.53,10.5,6.33,21.82,10.3,33.91,11.93,12.01,1.63,23.9.78,35.67-2.29,12.79-3.31,24.15-9.4,34.44-17.49,8.74-6.91,16.26-15.04,23.33-23.7,10.38-12.75,19.65-26.27,29.13-39.68,1.47-2.17,3.02-4.25,4.49-6.33,10.13-14.14,20.59-28.03,33.1-40.17.61-.65,1.27-1.23,1.88-1.84,6.25-5.92,13.2-10.87,20.59-15.36,6.01-3.68,12.3-6.82,18.8-9.6.37-.16.78-.53,1.35-.25h-.08Z"/>
  <path d="M214.58,110.63s.12-.2.25-.33l30.77-27.83c.2-.16.45-.29.74-.53l-31.71,28.68h-.04Z"/>
  <path class="cls-2" d="M293.68,51.47c-.2.53-.57.57-.86.61-7.31,2.37-13.32,6.82-18.84,11.93-.45.41-.94.82-1.35,1.27-7.48,7.15-13.73,15.24-19.86,23.49-9.4,12.75-18.26,25.9-28.32,38.12-.57.74-1.18,1.39-1.76,2.08-7.23,8.66-15.2,16.47-24.19,23.25-8.13,6.09-16.67,11.15-26.48,13.93-8.54,2.45-16.96,3.27-25.21,2.62-8.25-.74-16.43-2.98-24.39-6.7-9.89-4.54-18.06-11.32-24.96-19.65-.16-.2-.25-.41-.41-.74.65-.16,1.18.16,1.63.41,9.76,4.49,20.02,6.7,30.77,6.82,5.23.04,10.34-.45,15.36-1.43,4.94-1.02,9.85-2.49,14.63-4.49,8.54-3.6,16.26-8.54,23.66-14.22,5.48-4.13,10.62-8.58,15.69-13.2,3.84-3.43,7.56-6.95,11.36-10.5.12-.12.12-.2.2-.33l1.18-1.02,28.81-26.11.82-.74c.2-.16.41-.33.74-.53,9.36-8.05,19.65-14.22,30.77-18.67,6.05-2.45,12.34-4.41,18.88-5.88.37-.04.78-.16,1.14-.2.29-.04.61-.12,1.02-.16l-.04.04Z"/>
</svg>